<svg width="180" height="32" viewBox="0 0 180 32" fill="none" xmlns="http://www.w3.org/2000/svg">
<circle cx="16" cy="16" r="16" fill="#3751FF"/>
<path opacity="0.7" d="M45.482 23V9.605H50.346C51.8787 9.605 53.1707 9.871 54.222 10.403C55.286 10.9223 56.0903 11.6823 56.635 12.683C57.1797 13.671 57.452 14.8743 57.452 16.293C57.452 17.699 57.1797 18.9023 56.635 19.903C56.0903 20.9037 55.286 21.67 54.222 22.202C53.1707 22.734 51.8787 23 50.346 23H45.482ZM47.933 20.967H50.194C51.8153 20.967 53.0187 20.5807 53.804 19.808C54.5893 19.0353 54.982 17.8637 54.982 16.293C54.982 14.7097 54.5893 13.538 53.804 12.778C53.0187 12.0053 51.8153 11.619 50.194 11.619H47.933V20.967ZM63.8697 23.19C63.0337 23.19 62.299 22.9937 61.6657 22.601C61.0323 22.1957 60.5383 21.6193 60.1837 20.872C59.829 20.1247 59.6517 19.2317 59.6517 18.193C59.6517 17.1543 59.829 16.2677 60.1837 15.533C60.5383 14.7857 61.0323 14.2157 61.6657 13.823C62.299 13.4177 63.0337 13.215 63.8697 13.215C64.6803 13.215 65.3897 13.4177 65.9977 13.823C66.6183 14.2157 67.03 14.7477 67.2327 15.419H67.0237L67.2327 13.405H69.5127C69.4747 13.7977 69.4367 14.1967 69.3987 14.602C69.3733 15.0073 69.3607 15.4063 69.3607 15.799V23H67.0047L66.9857 21.024H67.2137C67.011 21.6827 66.5993 22.2083 65.9787 22.601C65.358 22.9937 64.655 23.19 63.8697 23.19ZM64.5347 21.366C65.282 21.366 65.8837 21.1063 66.3397 20.587C66.7957 20.055 67.0237 19.257 67.0237 18.193C67.0237 17.129 66.7957 16.3373 66.3397 15.818C65.8837 15.2987 65.282 15.039 64.5347 15.039C63.7873 15.039 63.1857 15.2987 62.7297 15.818C62.2737 16.3373 62.0457 17.129 62.0457 18.193C62.0457 19.257 62.2673 20.055 62.7107 20.587C63.1667 21.1063 63.7747 21.366 64.5347 21.366ZM75.7669 23.19C74.9435 23.19 74.1835 23.095 73.4869 22.905C72.8029 22.7023 72.2265 22.4237 71.7579 22.069L72.4229 20.473C72.9042 20.8023 73.4362 21.0557 74.0189 21.233C74.6015 21.4103 75.1905 21.499 75.7859 21.499C76.4192 21.499 76.8879 21.3913 77.1919 21.176C77.5085 20.9607 77.6669 20.6693 77.6669 20.302C77.6669 20.0107 77.5655 19.7827 77.3629 19.618C77.1729 19.4407 76.8625 19.3077 76.4319 19.219L74.5319 18.858C73.7212 18.6807 73.1005 18.3767 72.6699 17.946C72.2519 17.5153 72.0429 16.9517 72.0429 16.255C72.0429 15.6597 72.2012 15.134 72.5179 14.678C72.8472 14.222 73.3095 13.8673 73.9049 13.614C74.5129 13.348 75.2222 13.215 76.0329 13.215C76.7422 13.215 77.4072 13.31 78.0279 13.5C78.6612 13.69 79.1932 13.975 79.6239 14.355L78.9399 15.894C78.5472 15.5773 78.0975 15.3303 77.5909 15.153C77.0842 14.9757 76.5902 14.887 76.1089 14.887C75.4502 14.887 74.9689 15.0073 74.6649 15.248C74.3609 15.476 74.2089 15.7737 74.2089 16.141C74.2089 16.4197 74.2975 16.654 74.4749 16.844C74.6649 17.0213 74.9562 17.1543 75.3489 17.243L77.2489 17.604C78.0975 17.7687 78.7372 18.06 79.1679 18.478C79.6112 18.8833 79.8329 19.4407 79.8329 20.15C79.8329 20.7833 79.6619 21.328 79.3199 21.784C78.9779 22.24 78.5029 22.5883 77.8949 22.829C77.2869 23.0697 76.5775 23.19 75.7669 23.19ZM82.2654 23V9.016H84.6404V15.324H84.3744C84.6658 14.64 85.1154 14.1207 85.7234 13.766C86.3314 13.3987 87.0281 13.215 87.8134 13.215C88.9534 13.215 89.8021 13.538 90.3594 14.184C90.9168 14.8173 91.1954 15.7863 91.1954 17.091V23H88.8204V17.205C88.8204 16.4577 88.6748 15.9193 88.3834 15.59C88.1048 15.248 87.6551 15.077 87.0344 15.077C86.3124 15.077 85.7298 15.305 85.2864 15.761C84.8558 16.2043 84.6404 16.7997 84.6404 17.547V23H82.2654ZM99.6047 23.19C98.794 23.19 98.0847 22.9937 97.4767 22.601C96.8687 22.1957 96.4633 21.651 96.2607 20.967H96.4697V23H94.1137V9.016H96.4887V15.362H96.2607C96.476 14.7033 96.8877 14.184 97.4957 13.804C98.1037 13.4113 98.8067 13.215 99.6047 13.215C100.453 13.215 101.194 13.4177 101.828 13.823C102.461 14.2283 102.955 14.8047 103.31 15.552C103.664 16.2867 103.842 17.1733 103.842 18.212C103.842 19.2507 103.664 20.1437 103.31 20.891C102.955 21.6257 102.455 22.1957 101.809 22.601C101.175 22.9937 100.441 23.19 99.6047 23.19ZM98.9397 21.366C99.687 21.366 100.289 21.1063 100.745 20.587C101.213 20.0677 101.448 19.276 101.448 18.212C101.448 17.148 101.213 16.3563 100.745 15.837C100.289 15.305 99.687 15.039 98.9397 15.039C98.1923 15.039 97.5907 15.2987 97.1347 15.818C96.6787 16.3373 96.4507 17.129 96.4507 18.193C96.4507 19.257 96.6787 20.055 97.1347 20.587C97.5907 21.1063 98.1923 21.366 98.9397 21.366ZM110.628 23.19C109.64 23.19 108.785 22.9873 108.063 22.582C107.341 22.1767 106.777 21.6003 106.372 20.853C105.979 20.1057 105.783 19.219 105.783 18.193C105.783 17.167 105.979 16.2867 106.372 15.552C106.777 14.8047 107.341 14.2283 108.063 13.823C108.785 13.4177 109.64 13.215 110.628 13.215C111.616 13.215 112.471 13.4177 113.193 13.823C113.928 14.2283 114.491 14.8047 114.884 15.552C115.289 16.2867 115.492 17.167 115.492 18.193C115.492 19.219 115.289 20.1057 114.884 20.853C114.491 21.6003 113.928 22.1767 113.193 22.582C112.471 22.9873 111.616 23.19 110.628 23.19ZM110.628 21.366C111.375 21.366 111.971 21.1063 112.414 20.587C112.857 20.055 113.079 19.257 113.079 18.193C113.079 17.129 112.857 16.3373 112.414 15.818C111.971 15.2987 111.375 15.039 110.628 15.039C109.881 15.039 109.285 15.2987 108.842 15.818C108.399 16.3373 108.177 17.129 108.177 18.193C108.177 19.257 108.399 20.055 108.842 20.587C109.285 21.1063 109.881 21.366 110.628 21.366ZM121.645 23.19C120.809 23.19 120.074 22.9937 119.441 22.601C118.808 22.1957 118.314 21.6193 117.959 20.872C117.604 20.1247 117.427 19.2317 117.427 18.193C117.427 17.1543 117.604 16.2677 117.959 15.533C118.314 14.7857 118.808 14.2157 119.441 13.823C120.074 13.4177 120.809 13.215 121.645 13.215C122.456 13.215 123.165 13.4177 123.773 13.823C124.394 14.2157 124.805 14.7477 125.008 15.419H124.799L125.008 13.405H127.288C127.25 13.7977 127.212 14.1967 127.174 14.602C127.149 15.0073 127.136 15.4063 127.136 15.799V23H124.78L124.761 21.024H124.989C124.786 21.6827 124.375 22.2083 123.754 22.601C123.133 22.9937 122.43 23.19 121.645 23.19ZM122.31 21.366C123.057 21.366 123.659 21.1063 124.115 20.587C124.571 20.055 124.799 19.257 124.799 18.193C124.799 17.129 124.571 16.3373 124.115 15.818C123.659 15.2987 123.057 15.039 122.31 15.039C121.563 15.039 120.961 15.2987 120.505 15.818C120.049 16.3373 119.821 17.129 119.821 18.193C119.821 19.257 120.043 20.055 120.486 20.587C120.942 21.1063 121.55 21.366 122.31 21.366ZM130.103 23V15.856C130.103 15.4507 130.091 15.039 130.065 14.621C130.053 14.203 130.021 13.7977 129.97 13.405H132.269L132.535 16.027H132.155C132.282 15.3937 132.491 14.868 132.782 14.45C133.086 14.032 133.454 13.7217 133.884 13.519C134.315 13.3163 134.784 13.215 135.29 13.215C135.518 13.215 135.702 13.2277 135.841 13.253C135.981 13.2657 136.12 13.2973 136.259 13.348L136.24 15.438C136 15.3367 135.791 15.2733 135.613 15.248C135.449 15.2227 135.24 15.21 134.986 15.21C134.442 15.21 133.979 15.324 133.599 15.552C133.232 15.78 132.953 16.0967 132.763 16.502C132.586 16.9073 132.497 17.3697 132.497 17.889V23H130.103ZM141.557 23.19C140.721 23.19 139.98 22.9937 139.334 22.601C138.7 22.1957 138.206 21.6193 137.852 20.872C137.497 20.1247 137.32 19.2317 137.32 18.193C137.32 17.1543 137.497 16.2677 137.852 15.533C138.206 14.7857 138.7 14.2157 139.334 13.823C139.98 13.4177 140.721 13.215 141.557 13.215C142.355 13.215 143.058 13.4113 143.666 13.804C144.286 14.184 144.698 14.7033 144.901 15.362H144.654V9.016H147.029V23H144.692V20.967H144.92C144.717 21.651 144.305 22.1957 143.685 22.601C143.077 22.9937 142.367 23.19 141.557 23.19ZM142.222 21.366C142.969 21.366 143.571 21.1063 144.027 20.587C144.483 20.055 144.711 19.257 144.711 18.193C144.711 17.129 144.483 16.3373 144.027 15.818C143.571 15.2987 142.969 15.039 142.222 15.039C141.474 15.039 140.866 15.2987 140.398 15.818C139.942 16.3373 139.714 17.129 139.714 18.193C139.714 19.257 139.942 20.055 140.398 20.587C140.866 21.1063 141.474 21.366 142.222 21.366ZM155.819 23V9.605H158.27V15.533H158.308L164.141 9.605H167.105L160.113 16.578L160.132 15.514L167.561 23H164.502L158.308 16.806H158.27V23H155.819ZM168.683 23V13.405H171.058V23H168.683ZM168.55 11.6V9.282H171.191V11.6H168.55ZM178.141 23.19C177.001 23.19 176.14 22.8923 175.557 22.297C174.975 21.7017 174.683 20.8087 174.683 19.618V15.191H172.84V13.405H174.683V10.954L177.058 10.346V13.405H179.623V15.191H177.058V19.466C177.058 20.1247 177.185 20.587 177.438 20.853C177.692 21.119 178.04 21.252 178.483 21.252C178.724 21.252 178.927 21.233 179.091 21.195C179.269 21.157 179.44 21.1063 179.604 21.043V22.924C179.389 23.0127 179.148 23.076 178.882 23.114C178.629 23.1647 178.382 23.19 178.141 23.19Z" fill="#A4A6B3"/>
<path d="M11 10C11 9.44772 11.4477 9 12 9H15.9905C18.2127 9 19.9333 9.60955 21.1524 10.8287C22.3841 12.0478 23 13.765 23 15.9803C23 18.2088 22.3841 19.9391 21.1524 21.1713C19.9333 22.3904 18.2127 23 15.9905 23H12C11.4477 23 11 22.5523 11 22V10Z" fill="url(#paint0_linear_584_285)"/>
<defs>
<linearGradient id="paint0_linear_584_285" x1="11" y1="9" x2="23" y2="23" gradientUnits="userSpaceOnUse">
<stop stop-color="white" stop-opacity="0.7"/>
<stop offset="1" stop-color="white"/>
</linearGradient>
</defs>
</svg>
